<svg version="1.1" id="Layer_1" xmlns="http://www.w3.org/2000/svg" xmlns:xlink="http://www.w3.org/1999/xlink" x="0px" y="0px"
	 width="100%" viewBox="0 0 400 432" enable-background="new 0 0 400 432" xml:space="preserve">
<path fill="#000000" opacity="1.000000" stroke="none" 
	d="
M267.995911,407.184692 
	C261.830933,407.186920 256.162933,407.285034 250.499268,407.169983 
	C240.213882,406.960999 233.696564,400.887024 234.001251,390.571472 
	C234.180023,384.519043 230.366745,383.756439 226.464569,381.838409 
	C222.364105,379.822937 219.767578,381.037659 216.850143,384.001343 
	C209.842407,391.120148 201.645126,391.079681 194.432404,384.067566 
	C187.622803,377.447418 180.893219,370.742554 174.228043,363.976807 
	C166.998688,356.638336 166.793610,349.168030 173.436493,341.404510 
	C177.437988,336.727997 177.294922,330.127563 173.172821,325.713440 
	C171.712555,324.149750 169.868744,324.281067 168.063248,324.334625 
	C162.420837,324.501984 157.549622,322.859406 153.809250,318.470001 
	C152.538177,316.978394 150.887924,316.495911 149.030701,316.087433 
	C138.065186,313.675720 133.146698,307.638397 132.869141,296.481537 
	C132.645813,287.505463 132.645798,287.505554 124.526245,284.354828 
	C124.060402,284.174072 123.541397,284.070770 123.138084,283.797333 
	C116.875366,279.550934 112.249672,281.567719 107.257530,286.687286 
	C99.170380,294.980927 89.807800,294.822723 81.148026,287.154724 
	C79.037392,285.285828 77.030327,283.263092 75.208977,281.113403 
	C72.759827,278.222809 72.229782,274.861115 75.220192,272.197784 
	C78.213783,269.531616 81.426422,270.571716 84.157539,273.150665 
	C85.974426,274.866364 87.711967,276.666260 89.533913,278.376373 
	C92.426308,281.091187 95.322578,281.349762 98.282654,278.389954 
	C101.227570,275.445312 104.353935,272.677124 107.219742,269.659698 
	C110.286057,266.431122 113.742699,265.721191 117.603821,267.742737 
	C124.707703,271.462067 132.058655,274.543671 139.732559,276.858185 
	C143.414124,277.968597 145.174973,280.528931 145.246140,284.275391 
	C145.328415,288.606934 145.364304,292.940918 145.319641,297.272797 
	C145.290283,300.121124 146.240402,302.062866 149.136871,302.564789 
	C151.269653,301.115234 150.602829,299.116577 150.625839,297.386536 
	C150.705643,291.388153 150.557617,285.385712 150.693344,279.389282 
	C150.919342,269.405518 156.769211,263.752960 166.777405,263.647247 
	C172.722107,263.584473 175.477234,261.275238 176.404892,255.341309 
	C177.040802,251.273499 174.091919,251.027710 171.328476,251.122498 
	C162.423615,251.427902 153.657135,250.576309 145.249878,247.603546 
	C115.264412,237.000793 96.668625,216.134018 90.716324,184.872910 
	C81.819954,138.149796 111.017502,97.604759 155.211761,88.676300 
	C196.749084,80.284615 238.497894,104.520950 250.268539,145.921432 
	C250.765991,147.671036 251.424438,149.579697 251.184662,151.299500 
	C249.987305,159.887634 253.764191,168.024139 253.251236,176.518799 
	C253.048264,179.880005 254.907501,180.795746 257.916565,180.750610 
	C264.414520,180.653091 270.914948,180.678162 277.414093,180.711426 
	C287.055878,180.760757 291.459320,183.576920 294.812561,192.507965 
	C296.013763,195.707291 298.109833,195.940445 300.686432,195.546356 
	C303.921387,195.051559 306.357910,193.408035 306.600006,189.833099 
	C306.802399,186.845139 306.741150,183.837189 306.741455,180.838089 
	C306.742493,171.005814 306.803131,161.172394 306.670959,151.341705 
	C306.596039,145.771393 304.188477,143.494659 298.706055,143.395416 
	C294.874115,143.326019 291.036499,143.245499 287.208527,143.376831 
	C283.346405,143.509338 280.830170,141.934357 279.670837,138.229111 
	C277.277191,130.579025 274.189331,123.215645 270.300049,116.209969 
	C268.187561,112.404762 268.913574,109.246666 271.918427,106.332687 
	C274.908722,103.432884 277.859161,100.491005 280.785858,97.526932 
	C283.753021,94.521904 283.949524,91.384819 280.895142,88.337273 
	C271.695343,79.158058 262.480133,69.993843 253.214890,60.880798 
	C250.043167,57.761181 246.848557,57.760166 243.678650,61.107250 
	C240.930038,64.009514 237.963837,66.704735 235.184937,69.579536 
	C232.250778,72.614960 228.955444,73.254105 225.227386,71.313126 
	C217.969696,67.534523 210.440887,64.437843 202.628525,61.999794 
	C199.198334,60.929317 197.537033,58.544598 197.635376,54.849998 
	C197.746216,50.686893 197.674576,46.517963 197.633606,42.352047 
	C197.590210,37.938423 195.280380,35.355927 190.922592,35.312153 
	C177.761612,35.179958 164.597672,35.200661 151.436386,35.322571 
	C147.490967,35.359116 145.333145,37.629303 145.310059,41.692013 
	C145.286392,45.858093 145.241318,50.024338 145.258743,54.190285 
	C145.276352,58.397770 143.367844,61.123314 139.283890,62.305614 
	C131.734818,64.491058 124.573753,67.619476 117.626640,71.266052 
	C113.912323,73.215714 110.634338,72.681587 107.652290,69.660248 
	C104.611069,66.578949 101.459084,63.604576 98.299927,60.642765 
	C95.383865,57.908859 92.384132,57.826744 89.494820,60.696136 
	C80.272507,69.854912 71.070732,79.034386 61.863762,88.208603 
	C58.616718,91.444107 58.829514,94.560936 62.091660,97.686501 
	C64.978645,100.452621 67.755226,103.333603 70.603127,106.140976 
	C73.569801,109.065422 74.257347,112.395714 72.345634,116.130020 
	C68.696732,123.257668 65.532471,130.577652 63.145950,138.233307 
	C62.013676,141.865494 59.513184,143.563095 55.606625,143.409622 
	C51.613518,143.252762 47.608818,143.404892 43.609272,143.394043 
	C39.083481,143.381775 36.403805,145.507126 35.806953,150.066116 
	C35.634415,151.384048 35.391212,152.708237 35.387085,154.030212 
	C35.353802,164.695663 35.285904,175.362167 35.400200,186.026505 
	C35.477383,193.227890 37.970379,195.587982 45.035931,195.633194 
	C48.702133,195.656647 52.370937,195.739151 56.034138,195.636734 
	C59.761715,195.532501 62.059921,197.327286 63.095711,200.739502 
	C65.425865,208.415771 68.651344,215.711349 72.268654,222.846527 
	C74.063309,226.386505 73.748642,229.544052 70.833298,232.383240 
	C68.088203,235.056656 65.343826,237.736572 62.718784,240.526230 
	C58.214935,245.312546 58.276062,246.982147 62.859108,251.848618 
	C64.228737,253.302917 65.772018,254.631180 66.932449,256.236420 
	C68.761650,258.766785 69.132683,261.538208 66.746094,263.959991 
	C64.311951,266.430023 61.491486,266.695709 58.649815,264.585388 
	C45.065548,254.497101 43.199982,241.256470 55.143921,231.165848 
	C59.183868,227.752792 59.267975,224.728973 57.572628,219.634094 
	C54.515995,210.448273 50.070820,206.116821 39.705418,207.069489 
	C31.220081,207.849365 24.010035,199.857712 23.821741,191.007324 
	C23.520515,176.848679 23.440357,162.671280 23.822401,148.516815 
	C24.098413,138.290726 31.492382,131.764496 41.762100,131.650238 
	C52.095139,131.535263 52.091225,131.533676 55.876274,122.205643 
	C56.251595,121.280693 56.587582,120.302826 57.153316,119.498222 
	C60.349609,114.952309 59.306149,111.454491 55.109486,108.018158 
	C49.047607,103.054535 45.926506,96.704697 47.791298,88.611809 
	C48.686199,84.728096 50.947693,81.651352 53.682396,78.918503 
	C62.520775,70.086121 71.310463,61.200832 80.318169,52.543243 
	C89.508728,43.709904 98.598877,43.487545 107.416260,52.578709 
	C112.449341,57.768063 116.996902,59.665604 123.181526,55.207230 
	C123.969917,54.638897 124.979942,54.267563 125.941826,54.068554 
	C131.499023,52.918785 133.054794,49.554890 132.968536,44.006634 
	C132.746124,29.702093 139.772552,22.861877 154.053436,22.753885 
	C165.551682,22.666935 177.051041,22.701284 188.549835,22.720140 
	C202.978867,22.743799 210.632965,30.488806 209.732452,44.818497 
	C209.425507,49.702896 211.260788,51.639626 215.414230,53.802177 
	C224.004349,58.274757 230.531937,58.637920 237.740723,50.458054 
	C243.837570,43.539883 252.839874,43.980282 259.766174,50.379723 
	C270.771149,60.547562 281.384735,71.176712 291.645752,82.097542 
	C297.570587,88.403351 297.124084,98.988098 290.170715,105.145935 
	C283.778839,110.806511 283.208679,115.684952 286.895630,123.071747 
	C291.003571,131.302109 290.352478,131.627090 299.083649,131.648315 
	C311.966583,131.679642 318.923065,137.752640 319.018127,150.649902 
	C319.135468,166.563187 320.650909,182.562180 317.452240,199.140991 
	C328.863678,196.010117 334.984955,203.774521 341.669739,210.517899 
	C346.126526,215.013733 350.839508,219.259033 355.227295,223.819046 
	C362.417267,231.291336 362.846558,239.595352 355.308594,246.744919 
	C350.528015,251.279190 352.997345,254.817322 354.430603,259.151855 
	C355.887787,263.558624 359.122009,263.490234 362.798584,263.557617 
	C372.761749,263.740234 378.243256,269.346741 378.299866,279.173645 
	C378.356537,289.005707 378.365967,298.838562 378.311066,308.670624 
	C378.259216,317.953003 372.413757,323.896667 363.092377,324.289398 
	C357.021759,324.545135 351.728149,329.887329 351.756042,335.753204 
	C351.765015,337.642548 353.244812,338.653473 354.357544,339.843506 
	C362.829681,348.904510 362.719696,356.280579 353.995239,364.937012 
	C347.725739,371.157776 341.531036,377.454224 335.235382,383.648224 
	C327.640961,391.119934 319.606812,391.245941 311.987610,383.759918 
	C309.176666,380.998108 306.766571,379.743073 302.838898,381.726013 
	C298.834412,383.747711 294.812439,384.550690 295.113403,390.850006 
	C295.588104,400.786682 288.908264,406.990875 278.990295,407.172943 
	C275.492889,407.237183 271.993378,407.184021 267.995911,407.184692 
M311.612671,220.674850 
	C309.295441,221.789749 307.100891,221.288055 304.904388,220.245316 
	C302.048828,218.889740 299.279602,217.037979 296.261444,216.397049 
	C286.308472,214.283478 281.120026,209.148819 282.839478,198.345856 
	C283.421234,194.690765 281.062683,192.981857 277.326935,193.030243 
	C270.998749,193.112228 264.668213,192.999619 258.338684,192.995224 
	C243.795364,192.985107 246.387146,192.954514 246.228271,204.581131 
	C246.223724,204.914230 246.207275,205.247391 246.210922,205.580368 
	C246.256943,209.789795 244.267395,212.344131 240.234909,213.706329 
	C235.987839,215.140991 231.810486,216.834732 227.726151,218.687485 
	C219.388428,222.469650 219.181274,222.506805 212.485062,216.267731 
	C211.875748,215.700012 211.260529,215.138641 210.650879,214.571259 
	C207.243134,211.399612 203.891968,211.420242 200.550812,214.699020 
	C196.509262,218.665054 192.388046,222.551132 188.393372,226.563461 
	C178.469894,236.530792 178.903946,234.722931 188.060272,244.071426 
	C188.409927,244.428406 188.750381,244.794846 189.109390,245.142105 
	C191.728775,247.675842 192.128922,250.516205 190.450195,253.753601 
	C187.842529,258.782410 185.655472,263.980530 183.928452,269.393982 
	C182.637161,273.441589 179.925690,275.810608 175.321884,275.388092 
	C173.504944,275.221344 171.659470,275.341675 169.827484,275.367035 
	C164.070190,275.446686 162.511765,276.922516 162.408417,282.843719 
	C162.297974,289.171539 162.379440,295.502930 162.396667,301.832733 
	C162.423157,311.567932 162.765244,311.909760 172.454010,312.097900 
	C180.777481,312.259521 182.046005,313.181763 184.762299,320.899109 
	C185.479263,322.936066 186.164337,325.003143 187.104950,326.939392 
	C193.434479,339.968964 193.319641,338.923096 183.320709,348.452972 
	C180.535873,351.107178 180.454269,353.360382 183.172256,356.006470 
	C189.614105,362.277893 195.997894,368.609100 202.383774,374.937744 
	C204.565643,377.100037 207.135849,377.423157 208.865555,374.989014 
	C215.719711,365.343506 223.064087,367.005646 232.969437,371.046265 
	C242.574661,374.964417 248.138870,379.036224 246.305862,389.915253 
	C245.751389,393.206024 247.439362,394.804504 250.894165,394.770721 
	C259.888245,394.682770 268.884918,394.660614 277.878143,394.785919 
	C281.549286,394.837067 283.423370,393.094177 282.941345,389.691437 
	C281.424225,378.982361 286.622833,374.736816 296.335480,370.930237 
	C306.060120,367.118896 313.278259,365.245178 320.002716,374.813477 
	C321.831116,377.415070 324.628510,377.260254 326.941498,374.965515 
	C333.562103,368.397034 340.141907,361.787415 346.723206,355.179474 
	C348.792114,353.102203 348.771210,350.766754 346.429810,349.207825 
	C336.258423,342.435638 338.219238,334.905945 342.360809,324.912720 
	C346.292725,315.425323 350.704590,310.543701 361.115295,311.920013 
	C365.040649,312.438934 366.767700,310.026550 366.676361,306.072693 
	C366.545624,300.412201 366.648926,294.746368 366.648560,289.082794 
	C366.647675,275.748199 366.648651,275.641022 353.362762,275.407471 
	C349.219818,275.334656 346.862335,273.560638 345.566040,269.803223 
	C344.536316,266.818451 343.835327,263.543427 342.093353,261.013550 
	C336.244995,252.520142 337.067871,245.482727 345.502411,239.285172 
	C348.438568,237.127731 348.554810,234.401382 345.760406,231.674438 
	C339.681061,225.741852 333.668335,219.740295 327.677277,213.718262 
	C324.777313,210.803284 322.070099,210.613815 319.140228,213.721252 
	C316.974640,216.018097 314.575378,218.094620 311.612671,220.674850 
M127.196159,154.701706 
	C121.047905,173.786118 125.924332,190.197113 140.005493,203.804291 
	C148.705322,212.211273 159.564087,215.442154 171.818527,215.980331 
	C182.203125,216.436401 187.938797,210.525894 194.031281,204.077713 
	C197.075378,200.855896 200.762039,198.617355 205.416901,198.641312 
	C207.337021,198.651184 208.443802,197.563202 209.417023,196.111267 
	C218.816132,182.088821 220.835602,167.029358 214.265839,151.519913 
	C206.443024,133.052322 189.522369,122.445343 169.501373,123.309708 
	C148.926971,124.197952 135.094559,135.014297 127.196159,154.701706 
z"/>
<path fill="#000000" opacity="1.000000" stroke="none" 
	d="
M276.024597,338.380463 
	C249.875015,345.145050 223.550095,328.458344 219.133148,301.552338 
	C214.505966,273.365753 234.206543,252.305511 257.393616,248.466599 
	C277.364349,245.160202 297.709564,256.937531 305.478088,272.518188 
	C307.962494,277.500916 307.649536,280.485657 304.210052,282.555664 
	C300.888916,284.554443 297.675507,283.233276 294.998322,278.569977 
	C293.075775,275.221161 290.802063,272.186615 288.043854,269.484680 
	C285.104767,266.605499 282.305511,266.591187 279.383240,269.527924 
	C273.627106,275.312531 267.865845,281.093750 262.010498,286.777313 
	C254.487045,294.080017 245.739670,294.622498 237.180603,288.568604 
	C235.796738,287.589813 234.472321,285.480713 232.451218,286.811493 
	C230.673523,287.981995 230.406982,290.211029 230.408142,292.207581 
	C230.417099,307.542572 238.826218,321.483398 255.173401,326.458801 
	C273.414062,332.010468 292.626038,320.848938 297.562378,302.275757 
	C299.605591,294.588043 301.604218,292.592682 306.074982,293.776978 
	C309.997467,294.816040 311.151154,298.246674 309.288971,305.187988 
	C304.661316,322.437317 293.235718,333.070557 276.024597,338.380463 
M260.034332,271.533356 
	C262.138611,269.398163 264.257233,267.276855 266.339996,265.120880 
	C267.161011,264.271057 267.920837,263.311981 267.488068,262.019897 
	C266.965698,260.460297 265.584961,260.325806 264.226135,260.278748 
	C255.027847,259.959991 247.353851,263.411530 240.900299,269.800598 
	C239.662048,271.026459 238.943115,272.283081 240.089020,274.192230 
	C244.350464,281.292084 249.380798,282.030548 255.271561,276.251190 
	C256.698273,274.851440 258.113464,273.439880 260.034332,271.533356 
z"/>
</svg>